# xmcd
#
# Track frame offsets:
#   150
#   13777
#   28471
#   43028
#   58935
#   73820
#   89118
#   102476
#   118548
#   133105
#   148705
#   161184
#
# Disc length: 2354 seconds
#
# Revision: 0
# Processed by: cddbd v1.5.1PL0 Copyright (c) Steve Scherf et al.
# Submitted via: uFREEDB ActiveX Control 1.5
#
DISCID=c009300c
DTITLE=Papa Roach - Getting Away With Murder
DYEAR=2000
DGENRE=Alternative
TTITLE0=Blood
TTITLE1=Not Listening
TTITLE2=Stop Looking Start Seeing
TTITLE3=Take Me
TTITLE4=Getting Away With Murder
TTITLE5=Be Free
TTITLE6=Done With You
TTITLE7=Scars
TTITLE8=Sometimes
TTITLE9=Blanket of Fear
TTITLE10=Tyranny of Normality
TTITLE11=Do Or Die
EXTD=
EXTT0=
EXTT1=
EXTT2=
EXTT3=
EXTT4=
EXTT5=
EXTT6=
EXTT7=
EXTT8=
EXTT9=
EXTT10=
EXTT11=
PLAYORDER=
